<?xml version="1.0" encoding="utf-8"?>
<svg width="33px" height="40px" viewBox="0 0 33 40" version="1.1" xmlns:xlink="http://www.w3.org/1999/xlink" xmlns="http://www.w3.org/2000/svg">
  <desc>Created with Lunacy</desc>
  <g id="iconfinder_document-download_4918888" transform="matrix(-1 0 0 1 33 0)">
    <path d="M0 12L0 37.3333C0 38.8 1.2375 40 2.75 40L30.25 40C31.7625 40 33 38.8 33 37.3333L33 2.66667C33 1.2 31.7625 0 30.25 0L12.375 0L12.375 12L0 12ZM0 9.33333L9.625 0L9.625 9.33333L0 9.33333ZM13.75 24L13.75 18.6667L19.25 18.6667L19.25 24L23.7875 24L16.5 31.0667L9.2125 24L13.75 24Z" id="document-download" fill="#395379" fill-rule="evenodd" stroke="none" />
  </g>
</svg>
